<svg width="12" height="15" viewBox="0 0 12 15" fill="none" xmlns="http://www.w3.org/2000/svg">
<path d="M3.5 9.10735L2.36073 8.02233C1.95951 7.64022 1.3208 7.66929 0.955957 8.08626V8.08626C0.626227 8.46309 0.635932 9.02854 0.978398 9.39383L4.69212 13.3551C4.92843 13.6072 5.25794 13.7502 5.60345 13.7502C6.28158 13.7502 7.39643 13.7502 8.5 13.7502C10 13.7502 11 12.5002 11 11.2502C11 11.2502 11 11.2502 11 11.2502C11 11.2502 11 6.9645 11 5.89307" stroke="#F4F5F7" stroke-width="0.9375" stroke-linecap="round" stroke-linejoin="round"/>
<path d="M9.125 6.25035C9.125 6.25035 9.125 6.17215 9.125 5.89321C9.125 4.46463 11 4.46463 11 5.89321" stroke="#F4F5F7" stroke-width="0.9375" stroke-linecap="round" stroke-linejoin="round"/>
<path d="M7.25 6.24979C7.25 6.24979 7.25 5.73625 7.25 5.17836C7.25 3.74979 9.125 3.74979 9.125 5.17836C9.125 5.31784 9.125 5.75317 9.125 5.89265C9.125 6.17159 9.125 6.24979 9.125 6.24979" stroke="#F4F5F7" stroke-width="0.9375" stroke-linecap="round" stroke-linejoin="round"/>
<path d="M5.375 6.24965C5.375 6.24965 5.375 5.38452 5.375 4.68715C5.375 3.25858 7.25 3.25858 7.25 4.68715C7.25 4.68715 7.25 4.68715 7.25 4.68715C7.25 4.68715 7.25 5.03875 7.25 5.17822C7.25 5.73611 7.25 6.24965 7.25 6.24965" stroke="#F4F5F7" stroke-width="0.9375" stroke-linecap="round" stroke-linejoin="round"/>
<path d="M3.5 9.10714V2.1875C3.5 1.66973 3.91973 1.25 4.4375 1.25V1.25C4.95527 1.25 5.375 1.6691 5.375 2.18687C5.375 2.93105 5.375 3.96348 5.375 4.6875C5.375 5.38486 5.375 6.25 5.375 6.25" stroke="#F4F5F7" stroke-width="0.9375" stroke-linecap="round" stroke-linejoin="round"/>
</svg>
